<svg viewBox="0 0 795 953" fill="none" xmlns="http://www.w3.org/2000/svg"><path d="M451.856 176.323c0-30.621-23.794-50.125-66.118-50.125h-57.536V262.92h50.71v-36.082h6.826c42.324 0 66.118-21.064 66.118-50.515Zm-54.415.585c0 7.607-5.266 11.702-12.873 11.702h-5.656v-23.209h5.656c7.607 0 12.873 3.901 12.873 11.507Zm44.458 236.012v-43.104h-54.416v-93.618h-50.71V412.92h105.126Zm-52.704 103.191c-9.362 0-11.897-6.827-11.897-17.749v-72.164h-50.905v76.845c0 41.933 23.209 61.827 62.802 61.827 39.983 0 63.192-19.894 63.192-61.827v-76.845h-50.905v72.164c0 10.922-2.34 17.749-12.287 17.749Zm61.963 151.95c0-23.014-14.823-37.447-39.983-42.713l-22.43-4.681c-1.755-.39-2.34-1.56-2.34-2.926 0-1.95 1.95-3.12 4.486-3.12 15.993 0 33.741 8.581 33.741 8.581l20.674-33.741c-14.237-8.777-28.67-15.408-52.855-15.408-34.717 0-60.852 15.993-60.852 45.639 0 23.014 15.408 37.837 37.838 42.518l22.624 4.681c1.755.39 2.341 1.365 2.341 2.73 0 2.146-1.561 3.316-4.486 3.316-15.994 0-29.061-3.706-42.519-11.312l-19.894 32.181c14.043 12.288 35.887 21.259 61.632 21.259 37.448 0 62.023-18.138 62.023-47.004ZM376.486 862.92v-45.054h25.745v45.054h52.856V726.198h-52.856v46.029h-25.745v-46.029h-52.855V862.92h52.855Z" fill="#002EE7"/></svg>