<?xml version="1.0" encoding="utf-8"?>
<!-- Generator: Adobe Illustrator 27.7.0, SVG Export Plug-In . SVG Version: 6.00 Build 0)  -->
<svg version="1.1" id="Layer_1" xmlns="http://www.w3.org/2000/svg" xmlns:xlink="http://www.w3.org/1999/xlink" x="0px" y="0px"
	 viewBox="0 0 798 952" style="enable-background:new 0 0 798 952;" xml:space="preserve">
<style type="text/css">
	.st0{fill:#002EE7;}
</style>
<path class="st0" d="M221.04,247.3l9.2,61.8h1.8l9.2-61.8h60l-36.4,140.2h-56.2l-8.2-41.6h-1.6l-8.2,41.6h-56.6l-36.8-140.2h60
	l10,61.8h2l8.6-61.8H221.04z M411.9,304.7v24.8h-54.6v14.2h61.8v43.8H305.3V247.3h113.8v43.8h-61.8v13.6H411.9z M532.82,387.5
	h-107.8V247.3h52v96h55.8V387.5z M646.69,387.5h-107.8V247.3h52v96h55.8V387.5z M698.76,352.1h-46v-36.4h46V352.1z M196.29,483.7
	h-1.4v57.8h-52V401.3h51.6l32.2,62.8h1.6v-62.8h52v140.2h-51.6L196.29,483.7z M392.85,458.7v24.8h-54.6v14.2h61.8v43.8h-113.8V401.3
	h113.8v43.8h-61.8v13.6H392.85z M531.38,495.5c0,29.6-25.2,48.2-63.6,48.2c-26.4,0-48.8-9.2-63.2-21.8l20.4-33
	c13.8,7.8,27.2,11.6,43.6,11.6c3,0,4.6-1.2,4.6-3.4c0-1.4-0.6-2.4-2.4-2.8l-23.2-4.8c-23-4.8-38.8-20-38.8-43.6
	c0-30.4,26.8-46.8,62.4-46.8c24.8,0,39.6,6.8,54.2,15.8l-21.2,34.6c0,0-18.2-8.8-34.6-8.8c-2.6,0-4.6,1.2-4.6,3.2
	c0,1.4,0.6,2.6,2.4,3l23,4.8C516.18,457.1,531.38,471.9,531.38,495.5z M656.38,495.5c0,29.6-25.2,48.2-63.6,48.2
	c-26.4,0-48.8-9.2-63.2-21.8l20.4-33c13.8,7.8,27.2,11.6,43.6,11.6c3,0,4.6-1.2,4.6-3.4c0-1.4-0.6-2.4-2.4-2.8l-23.2-4.8
	c-23-4.8-38.8-20-38.8-43.6c0-30.4,26.8-46.8,62.4-46.8c24.8,0,39.6,6.8,54.2,15.8l-21.2,34.6c0,0-18.2-8.8-34.6-8.8
	c-2.6,0-4.6,1.2-4.6,3.2c0,1.4,0.6,2.6,2.4,3l23,4.8C641.18,457.1,656.38,471.9,656.38,495.5z"/>
</svg>
