<?xml version="1.0" encoding="utf-8"?>
<!-- Generator: Adobe Illustrator 27.8.1, SVG Export Plug-In . SVG Version: 6.00 Build 0)  -->
<svg version="1.1" id="Layer_1" xmlns="http://www.w3.org/2000/svg" xmlns:xlink="http://www.w3.org/1999/xlink" x="0px" y="0px"
	 viewBox="0 0 794 953" style="enable-background:new 0 0 794 953;" xml:space="preserve">
<style type="text/css">
	.st0{fill:#FFFFFF;}
</style>
<path class="st0" d="M276.8,152.4c0,28.5-23,48.9-64,48.9h-6.6v34.9h-49.1V103.9h55.7C253.8,103.9,276.8,122.7,276.8,152.4z
	 M224.1,152.9c0-7.4-5.1-11.1-12.5-11.1h-5.5v22.5h5.5C219,164.2,224.1,160.3,224.1,152.9z M381.8,158v23.4h-51.5v13.4h58.3v41.3
	H281.2V103.9h107.4v41.3h-58.3V158H381.8z M395.1,103.9h120.6v44.7h-35.9v87.6h-49.1v-87.6h-35.7V103.9z M636.9,192.7
	c0,27.9-23.8,45.5-60,45.5c-24.9,0-46-8.7-59.6-20.6l19.2-31.1c13,7.4,25.7,10.9,41.1,10.9c2.8,0,4.3-1.1,4.3-3.2
	c0-1.3-0.6-2.3-2.3-2.6l-21.9-4.5c-21.7-4.5-36.6-18.9-36.6-41.1c0-28.7,25.3-44.2,58.9-44.2c23.4,0,37.4,6.4,51.1,14.9l-20,32.6
	c0,0-17.2-8.3-32.6-8.3c-2.5,0-4.3,1.1-4.3,3c0,1.3,0.6,2.5,2.3,2.8l21.7,4.5C622.5,156.5,636.9,170.5,636.9,192.7z"/>
</svg>
