<svg viewBox="0 0 793 947" fill="none" xmlns="http://www.w3.org/2000/svg"><path d="M161.69 160.913v-24.105h-48.405v-15.357h55.986V79.072H62.742v136.272h50.543v-54.431h48.405Zm138.846 54.431-49.96-136.272h-52.682l-49.959 136.272h54.431l6.609-21.189h30.52l6.61 21.189h54.431Zm-76.009-92.338 8.748 47.043H215.39l8.359-47.043h.778Zm131.979 54.431 8.554 16.718h25.854l8.165-16.718h1.555v37.907h50.543V79.072h-46.072l-26.632 57.541h-1.166l-27.021-57.54h-45.878v136.271h50.543v-37.907h1.555Zm100.533 37.907h50.543V79.072h-50.543v136.272Zm161.162 0v-42.962h-54.236v-93.31h-50.543v136.272h104.779Zm38.518-91.755-14.385-44.517h-59.097l49.183 88.256v48.016h50.542v-48.016l48.599-88.256h-59.096l-14.191 44.517h-1.555Zm-528.944 165.94v24.105h9.137v9.72c-15.357-.194-26.049-9.72-26.049-26.049 0-15.552 9.525-26.243 25.077-26.243 8.942 0 14.774 3.499 21.578 11.08l29.548-32.464c-12.441-13.024-29.743-22.744-53.653-22.744-49.377 0-76.398 29.937-76.398 69.788 0 45.877 34.797 70.76 75.231 70.76 23.328 0 42.573-8.359 55.598-19.051v-58.902h-60.069Zm212.817 75.815-49.96-136.272h-52.681l-49.96 136.272h54.431l6.609-21.189h30.52l6.61 21.189h54.431Zm-76.009-92.338 8.748 47.043h-17.885l8.359-47.043h.778Zm131.98 54.431 8.553 16.718h25.855l8.164-16.718h1.555v37.907h50.543V229.072h-46.071l-26.633 57.541h-1.166l-27.021-57.541h-45.878v136.272h50.543v-37.907h1.556Zm204.146-42.573h-53.07v-13.219h60.068v-42.573H497.096v136.272h110.611v-42.573h-60.068v-13.802h53.07v-24.105Zm134.645 35.769c0-22.939-14.774-37.324-39.851-42.573l-22.356-4.666c-1.75-.388-2.333-1.555-2.333-2.915 0-1.944 1.944-3.111 4.471-3.111 15.941 0 33.631 8.554 33.631 8.554l20.606-33.631c-14.191-8.748-28.576-15.357-52.681-15.357-34.603 0-60.652 15.94-60.652 45.488 0 22.939 15.357 37.713 37.713 42.379l22.55 4.665c1.749.389 2.332 1.361 2.332 2.722 0 2.138-1.555 3.305-4.471 3.305-15.94 0-28.965-3.694-42.378-11.275l-19.828 32.075c13.996 12.247 35.769 21.189 61.429 21.189 37.324 0 61.818-18.079 61.818-46.849Z" fill="#002EE7"/></svg>