<svg viewBox="0 0 795 952" fill="none" xmlns="http://www.w3.org/2000/svg"><path d="M52.342 216.782c34.207 33.077 72.429 34.228 102.252 3.386 29.824-30.843 27.123-68.449-7.364-101.797l-38.554-37.28-95.028 98.276 38.694 37.415Zm31.108-28.243-4.206-4.067 35.924-37.152 4.206 4.067c10.094 9.761 9.83 18.73-3.455 32.469s-22.375 14.443-32.47 4.683Zm125.118 179.307 8.557-57.103c15.769 2.769 30.44-2.304 41.692-13.94 21.554-22.291 18.142-52.989-12.28-82.406l-41.357-39.99-95.028 98.275 36.45 35.246 24.265-25.094 3.225 3.117-13.33 35.669 47.806 46.226Zm11.406-109.145c-5.287 5.467-12.19 5.032-17.658-.255l-4.065-3.932 16.132-16.683 4.065 3.932c5.468 5.287 6.813 11.47 1.526 16.938Zm-9.332 111.151 36.45 35.246 95.029-98.276-36.451-35.246-95.028 98.276Zm117.271 34.997-16.466 62.477 36.17 34.975 95.028-98.276-36.45-35.246-42.566 44.021-1.122-1.085 19.995-65.846-36.17-34.975-95.028 98.276 36.45 35.246 39.177-40.516.982.949Zm118.51 77.973 37.551-38.834-36.451-35.246-95.028 98.276 36.45 35.246 34.568-35.75 2.244 2.169-13.82 55.813 47.245 45.684 15.241-86.178 77.685-14.131-47.666-46.091-55.916 21.075-2.103-2.033Zm15.582 130.087 36.45 35.246 95.029-98.276-36.451-35.246-95.028 98.276Zm117.27 34.997-16.465 62.477 36.169 34.975 95.029-98.276-36.45-35.246-42.567 44.021-1.121-1.085 19.995-65.846-36.17-34.975-95.029 98.276 36.451 35.246 39.177-40.516.981.949Zm126.8 95.211-16.81 17.384 6.589 6.371-6.778 7.01c-10.939-10.85-12.008-25.175-.621-36.951 10.845-11.216 25.171-12.284 36.386-1.439 6.449 6.236 8.215 12.826 7.835 23.038l43.948-2.807c.11-18.069-5.589-37.143-22.833-53.817-35.609-34.433-75.972-31.686-103.762-2.946-31.993 33.085-24.25 75.296 4.91 103.492 16.823 16.268 36.532 23.66 53.381 25.032l41.075-42.479-43.32-41.888ZM109.759 375.161l-16.81 17.384 6.589 6.372-6.778 7.01c-10.94-10.85-12.008-25.175-.62-36.952 10.844-11.215 25.169-12.283 36.385-1.438 6.449 6.235 8.215 12.826 7.834 23.038l43.949-2.807c.11-18.069-5.589-37.144-22.833-53.818-35.609-34.432-75.973-31.685-103.763-2.946-31.992 33.086-24.25 75.296 4.91 103.493 16.824 16.267 36.532 23.66 53.381 25.032l41.075-42.479-43.319-41.889Zm100.609 203.083 58.998-133.115-37.992-36.737-131.058 63.436 39.254 37.957 19.543-10.672 22.01 21.283-10.009 19.891 39.254 37.957Zm9.576-119.597-26.498 40.027-12.897-12.471 38.834-28.098.561.542Zm57.223 131.29-5.49 18.021 18.646 18.03 17.546-6.363 1.122 1.084-26.435 27.338 36.451 35.246 95.028-98.276-33.226-32.128-59.332 22.926-.841-.814 20.639-60.34-33.086-31.992-95.028 98.275 36.45 35.246 26.434-27.338 1.122 1.085ZM454.08 701.595l-38.273-37.008 9.218-9.533 43.32 41.888 29.688-30.702-79.77-77.135-95.028 98.276 79.77 77.134 29.688-30.702-43.32-41.889 9.625-9.953 38.273 37.008 16.809-17.384Zm72.16 119.69c15.996-16.543 15.373-37.22.948-58.493l-12.869-18.954c-.991-1.5-.598-2.748.351-3.73 1.356-1.402 3.571-.887 5.393.875 11.496 11.116 18.289 29.621 18.289 29.621l38.313-9.884c-4.134-16.205-9.899-31.003-27.283-47.813-24.955-24.129-54.857-30.799-75.462-9.489-15.996 16.542-15.224 37.907-2.355 56.861l13.009 19.089c.991 1.501.734 2.609-.215 3.59-1.491 1.542-3.426 1.299-5.529-.735-11.496-11.116-18.313-22.862-22.7-37.683l-36.667 9.304c1.553 18.593 11.019 40.225 29.525 58.119 26.917 26.028 57.188 30.07 77.252 9.322Z" fill="#002EE7"/></svg>