<svg viewBox="0 0 1611 775" fill="none" xmlns="http://www.w3.org/2000/svg"><path d="m267.603 195.816-33.367-46.753c13.191-8.923 20.175-22.697 20.175-38.799 0-30.845-23.667-50.438-65.764-50.438h-57.229v135.99h50.439v-34.725h4.462l15.131 34.725h66.153Zm-67.317-85.94c0 7.566-5.238 12.028-12.803 12.028h-5.626V98.819h5.626c7.565 0 12.803 3.492 12.803 11.057Zm173.587 5.626h-52.961v-13.191h59.945V59.825H270.473v135.991h110.384v-42.485h-59.945v-13.773h52.961v-24.056Zm117.296 80.314v-42.873h-54.125V59.825h-50.439v135.991h104.564Zm156.232 0-49.857-135.99h-52.573l-49.857 135.99h54.319l6.596-21.145h30.457l6.596 21.145h54.319Zm-75.853-92.148 8.73 46.947h-17.847l8.341-46.947h.776Zm51.679-43.843v45.977h36.665v90.014h50.439v-90.014h36.859V59.825H623.227ZM753 195.817h50.438V59.826H753v135.99Zm129.208 2.134c42.679 0 74.495-30.069 74.495-69.838 0-39.187-31.622-70.42-74.495-70.42-42.873 0-74.3 31.233-74.3 70.42s31.621 69.838 74.3 69.838Zm21.146-69.644c0 13.192-7.566 24.055-21.146 24.055-13.58 0-20.951-10.863-20.951-24.055s7.371-23.28 20.951-23.28 21.146 10.088 21.146 23.28ZM1013 139.752l31.43 56.064h50.05V59.826h-50.44v60.914h-1.55l-31.24-60.914h-50.046v135.99h50.436v-56.064h1.36Zm208.89 11.445c0-22.891-14.74-37.247-39.76-42.485l-22.31-4.656c-1.75-.388-2.33-1.551-2.33-2.909 0-1.94 1.94-3.104 4.46-3.104 15.91 0 33.56 8.535 33.56 8.535l20.56-33.56c-14.16-8.73-28.51-15.327-52.57-15.327-34.53 0-60.52 15.908-60.52 45.395 0 22.892 15.32 37.636 37.63 42.292l22.5 4.655c1.75.388 2.33 1.358 2.33 2.716 0 2.134-1.55 3.298-4.46 3.298-15.91 0-28.91-3.686-42.29-11.251l-19.79 32.009c13.97 12.222 35.7 21.145 61.3 21.145 37.25 0 61.69-18.041 61.69-46.753Zm57.11 44.619v-44.813h25.61v44.813h52.58V59.826h-52.58v45.782H1279V59.825h-52.57v135.991H1279Zm84.02 0h50.44V59.826h-50.44v135.99Zm179.26-86.134c0-30.457-23.66-49.857-65.76-49.857h-57.23v135.991h50.44v-35.889h6.79c42.1 0 65.76-20.951 65.76-50.245Zm-54.12.582c0 7.566-5.24 11.64-12.8 11.64h-5.63V98.819h5.63c7.56 0 12.8 3.88 12.8 11.445ZM935.925 269.158v24.056h9.118v9.699c-15.326-.194-25.995-9.699-25.995-25.995 0-15.52 9.505-26.189 25.025-26.189 8.924 0 14.744 3.491 21.534 11.057l29.487-32.397c-12.416-12.998-29.681-22.697-53.543-22.697-49.275 0-76.24 29.875-76.24 69.644 0 45.783 34.725 70.614 75.076 70.614 23.28 0 42.485-8.341 55.483-19.011v-58.781h-59.945Zm212.375 75.658-49.85-135.991h-52.58l-49.853 135.991h54.323l6.59-21.145h30.46l6.59 21.145h54.32Zm-75.85-92.148 8.73 46.947h-17.85l8.35-46.947h.77Zm131.71 54.319 8.53 16.684h25.81l8.14-16.684h1.56v37.829h50.43V208.825h-45.97l-26.58 57.423h-1.16l-26.97-57.423h-45.78v135.991h50.44v-37.829h1.55Zm203.72-42.485h-52.96v-13.191h59.95v-42.486h-110.38v135.991h110.38v-42.485h-59.95v-13.773h52.96v-24.056Zm134.37 35.695c0-22.891-14.74-37.247-39.77-42.485l-22.31-4.656c-1.74-.388-2.32-1.551-2.32-2.909 0-1.94 1.94-3.104 4.46-3.104 15.91 0 33.56 8.535 33.56 8.535l20.56-33.561c-14.16-8.73-28.51-15.325-52.57-15.325-34.53 0-60.53 15.907-60.53 45.394 0 22.892 15.33 37.636 37.64 42.292l22.5 4.655c1.75.388 2.33 1.358 2.33 2.716 0 2.134-1.55 3.298-4.46 3.298-15.91 0-28.91-3.686-42.29-11.251l-19.79 32.009c13.97 12.222 35.69 21.145 61.3 21.145 37.25 0 61.69-18.041 61.69-46.753Z" fill="#fff"/></svg>