<svg viewBox="0 0 791 949" fill="none" xmlns="http://www.w3.org/2000/svg"><path d="M188.423 618.266c0-30.474-23.681-49.885-65.802-49.885h-57.26v136.068h50.467V668.54h6.793c42.121 0 65.802-20.964 65.802-50.274Zm-54.155.583c0 7.57-5.241 11.646-12.811 11.646h-5.629v-23.099h5.629c7.57 0 12.811 3.883 12.811 11.453Zm185.78 85.6-49.885-136.068H217.56l-49.885 136.068h54.35l6.599-21.157h30.475l6.599 21.157h54.35Zm-75.895-92.2 8.734 46.974H235.03l8.346-46.974h.777Zm216.024 92.2-33.386-46.779c13.199-8.929 20.187-22.711 20.187-38.821 0-30.863-23.681-50.468-65.802-50.468h-57.261v136.068h50.467v-34.745h4.465l15.14 34.745h66.19Zm-67.355-85.989c0 7.571-5.241 12.035-12.811 12.035h-5.629v-23.099h5.629c7.57 0 12.811 3.494 12.811 11.064Zm58.664-50.079v46.003h36.686v90.065h50.467v-90.065h36.881v-46.003H451.486Zm201.277 44.45-14.364-44.45h-59.008l49.109 88.124v47.944h50.467v-47.944l48.527-88.124h-59.009l-14.169 44.45h-1.553Zm-525.31 164.917v24.069h9.123v9.705c-15.335-.194-26.01-9.705-26.01-26.01 0-15.528 9.511-26.204 25.039-26.204 8.929 0 14.752 3.494 21.546 11.064l29.504-32.416c-12.423-13.005-29.698-22.71-53.573-22.71-49.303 0-76.284 29.892-76.284 69.684 0 45.809 34.745 70.654 75.119 70.654 23.293 0 42.509-8.346 55.514-19.022v-58.814h-59.978Zm212.498 75.701-49.885-136.068h-52.602l-49.886 136.068h54.35l6.6-21.157h30.474l6.6 21.157h54.349Zm-75.895-92.2 8.735 46.974h-17.858l8.347-46.974h.776Zm131.782 54.35 8.541 16.693h25.816l8.153-16.693h1.552v37.85h50.468V717.381h-46.003l-26.593 57.455h-1.164l-26.981-57.455h-45.809v136.068h50.468v-37.85h1.552ZM599.68 773.09h-52.991v-13.2h59.978v-42.509H496.221v136.068h110.446V810.94h-59.978v-13.781h52.991V773.09Zm134.443 35.715c0-22.905-14.752-37.268-39.791-42.509l-22.322-4.659c-1.747-.388-2.33-1.553-2.33-2.911 0-1.941 1.941-3.106 4.465-3.106 15.916 0 33.58 8.541 33.58 8.541L728.3 730.58c-14.169-8.734-28.533-15.334-52.602-15.334-34.551 0-60.561 15.917-60.561 45.421 0 22.904 15.334 37.656 37.656 42.315l22.516 4.658c1.747.389 2.33 1.359 2.33 2.718 0 2.135-1.553 3.3-4.465 3.3-15.916 0-28.921-3.688-42.315-11.259l-19.798 32.028c13.975 12.229 35.715 21.157 61.337 21.157 37.268 0 61.725-18.051 61.725-46.779Z" fill="#002EE7"/></svg>